<mxfile host="app.diagrams.net" modified="2024-05-30T01:37:41.718Z" agent="Mozilla/5.0 (Windows NT 10.0; Win64; x64) AppleWebKit/537.36 (KHTML, like Gecko) Chrome/124.0.0.0 Safari/537.36" version="24.4.0" etag="9QDouccoC3cnlTs1Otar" type="github">
  <diagram name="第 1 页" id="B4NL4OhcSvu_nfngXHua">
    <mxGraphModel>
      <root>
        <mxCell id="0" />
        <mxCell id="1" parent="0" />
      </root>
    </mxGraphModel>
  </diagram>
</mxfile>
